# xmcd
#
# Track frame offsets:
# 150
# 6728
# 18390
# 32060
# 50470
# 63045
# 83716
# 97691
# 110468
# 125842
# 140835
# 152893
# 172464
# 189462
# 211583
# 228980
# 243358
#
# Disc length: 3467 seconds
#
#
# Revision: 0
# Processed by: cddbd v1.5.1PL2 Copyright (c) Steve Scherf et al.
# Submitted via: FreeRIP 2.944 
#
DISCID=e60d8911
DTITLE=Wanderley Cardoso - Wanderley Cardoso 2000
DYEAR=2000
DGENRE=sertanejo
TTITLE0=Abertura
TTITLE1=Preste Atenção
TTITLE2=Doce de Côco
TTITLE3=Historia de amor
TTITLE4=Vem ficar comigo
TTITLE5=Pout-Pourri
TTITLE6=Pout-Pourri
TTITLE7=Fale Baixinho
TTITLE8=Diana
TTITLE9=Quando o amor se transforma em poesia
TTITLE10=Sempre lhe direi
TTITLE11=Minha namorada
TTITLE12=O bom rapaz
TTITLE13=Morango do nordeste
TTITLE14=Jesus te ama
TTITLE15=Anjo lindo
TTITLE16=Me telefona
EXTD=by: Madalena Guimarães
EXTT0=
EXTT1=
EXTT2=
EXTT3=
EXTT4=
EXTT5=
EXTT6=
EXTT7=
EXTT8=
EXTT9=
EXTT10=
EXTT11=
EXTT12=
EXTT13=
EXTT14=
EXTT15=
EXTT16=
PLAYORDER=
